<?xml version="1.0" encoding="UTF-8"?>
<svg version="1.1" xmlns="http://www.w3.org/2000/svg" width="500" height="500">
<path d="M0 0 C165 0 330 0 500 0 C500 165 500 330 500 500 C335 500 170 500 0 500 C0 335 0 170 0 0 Z " fill="#FCFCFC" transform="translate(0,0)"/>
<path d="M0 0 C1.8243457 0.35276001 1.8243457 0.35276001 3.68554688 0.71264648 C15.5936773 3.25083041 26.29099683 7.65953806 34.4375 16.9375 C37.15423155 19.34551205 38.84157047 20.11469682 42.1875 21.3125 C47.14026202 23.1282667 49.29316955 24.98682158 52.1875 29.375 C54.51297184 36.35141551 53.33004231 40.7129125 50.25 47.25 C44.60842856 58.22159122 36.31949594 65.62033604 26.1875 72.375 C23.5 72 23.5 72 21.1875 71.375 C20.8575 70.385 20.5275 69.395 20.1875 68.375 C16.27347051 69.64441497 14.39677127 70.88667694 12.1875 74.375 C15.29541209 76.96244834 18.27390442 78.25609269 22.0625 79.625 C30.37863076 83.10191531 30.37863076 83.10191531 33.25 87.05859375 C36.94472168 96.18763524 34.23967245 106.08602199 30.73852539 114.80102539 C26.31670602 125.08058312 18.58223124 137.48010569 8.25390625 142.65625 C4.51747532 143.95587815 0.64967211 144.67350613 -3.23828125 145.37109375 C-6.37058195 146.25087657 -8.68851358 147.27583859 -11.5390625 148.77734375 C-16.82545688 151.51845559 -22.11639545 153.06335859 -27.875 154.5 C-29.74153139 154.97926205 -31.60742702 155.46100737 -33.47265625 155.9453125 C-34.82061279 156.29384277 -34.82061279 156.29384277 -36.19580078 156.64941406 C-38.69049571 157.34116937 -41.1153556 158.13827033 -43.55859375 158.9921875 C-50.50468422 161.35413469 -57.47476579 161.62992862 -64.75 161.75 C-66.03293945 161.80607422 -66.03293945 161.80607422 -67.34179688 161.86328125 C-73.96952109 161.95427975 -77.50097807 160.14007561 -82.8125 156.375 C-85.93954143 154.7858478 -89.09720413 153.29229047 -92.2734375 151.8046875 C-94.8125 150.375 -94.8125 150.375 -96.8125 147.375 C-96.875 144 -96.875 144 -95.8125 140.375 C-94.10000111 139.25528919 -92.38521465 138.13869816 -90.65234375 137.05078125 C-86.58043529 133.34197291 -85.40673405 127.48983424 -83.8125 122.375 C-83.44125 121.18390625 -83.07 119.9928125 -82.6875 118.765625 C-81.1492734 113.58542073 -79.7698096 108.44431158 -78.8125 103.125 C-78.20334781 99.79672847 -77.28596683 96.92183952 -75.94140625 93.8203125 C-73.62962768 88.16767469 -72.15904469 82.43241997 -70.75 76.5 C-70.25911458 74.48177083 -69.76822917 72.46354167 -69.27734375 70.4453125 C-68.91757446 68.95197388 -68.91757446 68.95197388 -68.55053711 67.4284668 C-66.2640199 57.96850294 -63.81571245 48.63585664 -60.8125 39.375 C-60.50441406 38.40175781 -60.19632813 37.42851563 -59.87890625 36.42578125 C-57.67737675 29.87600261 -54.7818083 23.3443083 -49.8125 18.375 C-47.88671875 18.171875 -47.88671875 18.171875 -45.5 18.125 C-44.72011719 18.09921875 -43.94023437 18.0734375 -43.13671875 18.046875 C-40.178517 18.46450348 -38.96992915 19.32039846 -36.8125 21.375 C-36.27905273 23.72485352 -36.27905273 23.72485352 -36.24609375 26.50390625 C-36.23312256 27.53128906 -36.22015137 28.55867188 -36.20678711 29.6171875 C-36.22817749 31.26074219 -36.22817749 31.26074219 -36.25 32.9375 C-36.25588135 34.05253906 -36.2617627 35.16757813 -36.26782227 36.31640625 C-36.78111512 59.34361512 -36.78111512 59.34361512 -42.8125 65.375 C-42.85313832 67.04117115 -42.855221 68.70888095 -42.8125 70.375 C-35.67693852 71.17458774 -30.27240127 68.35845041 -23.875 65.4375 C-22.76560059 64.94475586 -21.65620117 64.45201172 -20.51318359 63.94433594 C-14.06146328 61.02920443 -7.96770839 57.82240875 -1.9375 54.125 C3.65106071 50.71300632 7.81036533 49.54277473 14.34375 50.83984375 C14.9521875 51.01644531 15.560625 51.19304687 16.1875 51.375 C16.5175 50.385 16.8475 49.395 17.1875 48.375 C15.8675 47.385 14.5475 46.395 13.1875 45.375 C13.3125 43.125 13.3125 43.125 14.1875 40.375 C17.61695301 37.64702602 21.06490877 35.8300322 25.1875 34.375 C25.1875 33.715 25.1875 33.055 25.1875 32.375 C11.3275 32.705 -2.5325 33.035 -16.8125 33.375 C-17.4725 34.695 -18.1325 36.015 -18.8125 37.375 C-18.131875 38.1175 -17.45125 38.86 -16.75 39.625 C-14.8125 42.375 -14.8125 42.375 -15.0625 44.6875 C-15.31 45.244375 -15.5575 45.80125 -15.8125 46.375 C-19.60130969 45.79937585 -21.48549805 44.1449377 -24.25 41.5625 C-27.35564766 38.70796907 -30.47426951 35.95943651 -33.8125 33.375 C-33.8125 30.30078855 -33.37791437 28.13805161 -31.52734375 25.640625 C-27.20032029 21.6464495 -23.61806896 21.04042355 -17.8125 21.125 C-17.15499756 21.15287598 -16.49749512 21.18075195 -15.82006836 21.20947266 C-9.09248675 21.48519953 -2.51408539 20.97830093 4.1875 20.375 C5.80978516 20.23143066 5.80978516 20.23143066 7.46484375 20.08496094 C10.03961808 19.85382772 12.61376721 19.61741571 15.1875 19.375 C12.92127559 17.10877559 12.03659195 16.95491274 8.96875 16.375 C8.11796875 16.21 7.2671875 16.045 6.390625 15.875 C5.49859375 15.71 4.6065625 15.545 3.6875 15.375 C1.94791667 15.04166667 0.20833333 14.70833333 -1.53125 14.375 C-2.40845703 14.21225586 -3.28566406 14.04951172 -4.18945312 13.88183594 C-5.89656137 13.55198144 -7.59908153 13.19707538 -9.29492188 12.81347656 C-15.68671249 11.3871462 -21.77402152 11.07276182 -28.3125 11.125 C-29.28058594 11.11726563 -30.24867188 11.10953125 -31.24609375 11.1015625 C-41.97231204 11.13035772 -50.11384875 13.17570209 -59.63671875 18.1328125 C-63.27207659 19.55476059 -65.94009615 19.67680606 -69.8125 19.375 C-72.25 18.1875 -72.25 18.1875 -73.8125 16.375 C-74.4375 14.125 -74.4375 14.125 -73.8125 11.375 C-71.61205952 8.20851248 -69.29999038 5.11874519 -65.8125 3.375 C-62.3125 3.125 -62.3125 3.125 -58.8125 3.375 C-56.8125 6.375 -56.8125 6.375 -56.8125 9.375 C-55.8225 9.375 -54.8325 9.375 -53.8125 9.375 C-54.01875 8.26125 -54.225 7.1475 -54.4375 6 C-54.56125 4.80375 -54.685 3.6075 -54.8125 2.375 C-52.52219895 0.08469895 -51.73267454 -0.00556001 -48.62109375 -0.4765625 C-47.76837891 -0.60619385 -46.91566406 -0.7358252 -46.03710938 -0.86938477 C-29.81794597 -3.08431782 -16.13744162 -3.18582364 0 0 Z " fill="#050505" transform="translate(254.8125,71.625)"/>
<path d="M0 0 C1.24193115 -0.01377686 2.4838623 -0.02755371 3.76342773 -0.04174805 C11.32239052 -0.00423583 18.23070711 0.86485286 25.57739258 2.65258789 C28.77897027 3.38159662 31.9267149 3.81870816 35.1875 4.1875 C42.87820881 5.34064135 49.74732319 8.12023472 56.75 11.375 C57.44706055 11.69887695 58.14412109 12.02275391 58.86230469 12.35644531 C75.76181869 20.38237808 91.93193862 31.93160769 98.875 50.125 C101.10585195 58.80766837 100.10906334 66.5441163 95.75 74.375 C93.65160439 77.31275386 91.31832558 79.8435908 88.75 82.375 C88.15316406 82.99375 87.55632812 83.6125 86.94140625 84.25 C81.58036236 89.42156833 75.65876371 91.80761426 68.75 94.375 C66.97786435 95.10099583 65.20693568 95.82994824 63.4375 96.5625 C59.58817343 98.09849945 55.75899624 99.3291749 51.75 100.375 C51.75 101.695 51.75 103.015 51.75 104.375 C53.41868836 105.93759184 53.41868836 105.93759184 55.6875 107.1875 C62.65422754 111.55259022 68.77040672 116.27278254 74.5 122.1875 C78.25849029 126.03980596 82.1553943 129.38983545 86.4375 132.625 C86.99034668 133.04467041 87.54319336 133.46434082 88.11279297 133.89672852 C90.44878623 135.66188053 92.79608201 137.40835176 95.16796875 139.125 C97.125 140.625 97.125 140.625 99.75 143.375 C99.97698492 147.15808207 99.19832483 148.72741968 97.0625 151.8125 C94.75 153.375 94.75 153.375 91.8125 153.3125 C88.75 152.375 88.75 152.375 86.3125 150.8125 C82.9987553 148.95357005 80.48733329 149.15515687 76.75 149.375 C76.481875 150.32375 76.21375 151.2725 75.9375 152.25 C74.75 155.375 74.75 155.375 71.75 157.375 C64.45007792 158.37467086 59.79571081 157.36745054 53.75 153.375 C52.491875 152.983125 51.23375 152.59125 49.9375 152.1875 C44.11518999 150.11534325 40.09406425 145.60838746 35.75 141.375 C34.65945313 140.37726563 34.65945313 140.37726563 33.546875 139.359375 C29.19582826 135.27404104 26.12356933 131.09479916 23.1953125 125.90234375 C21.31262866 122.6101912 19.19185198 119.50802089 17.046875 116.3828125 C15.78859481 114.4347522 14.74482125 112.46787866 13.75 110.375 C13.09 110.375 12.43 110.375 11.75 110.375 C11.65912109 112.23705078 11.65912109 112.23705078 11.56640625 114.13671875 C11.48196377 115.77865577 11.39731764 117.42058232 11.3125 119.0625 C11.27318359 119.87912109 11.23386719 120.69574219 11.19335938 121.53710938 C10.86309339 127.81216314 10.86309339 127.81216314 10.24609375 130.8828125 C9.31990031 135.53565827 9.34554147 140.31373681 9.14453125 145.04492188 C8.85210276 151.17079447 8.85210276 151.17079447 7.75 153.375 C2.875 152.5 2.875 152.5 1.75 151.375 C1.18409794 142.71234533 2.13181524 134.09486814 3.125 125.5 C3.25132812 124.31664062 3.37765625 123.13328125 3.5078125 121.9140625 C3.63671875 120.769375 3.765625 119.6246875 3.8984375 118.4453125 C4.07125244 116.91028076 4.07125244 116.91028076 4.24755859 115.34423828 C4.77855273 112.20626416 5.66998979 109.36438359 6.75 106.375 C4.9327669 106.96477747 3.12127957 107.57228453 1.3125 108.1875 C0.30316406 108.52394531 -0.70617187 108.86039062 -1.74609375 109.20703125 C-2.57238281 109.59246094 -3.39867187 109.97789062 -4.25 110.375 C-4.745 111.86 -4.745 111.86 -5.25 113.375 C-4.26 113.375 -3.27 113.375 -2.25 113.375 C-2.30534912 113.93783691 -2.36069824 114.50067383 -2.41772461 115.08056641 C-2.67620074 117.72019671 -2.93175792 120.36010346 -3.1875 123 C-3.32889404 124.43412231 -3.32889404 124.43412231 -3.47314453 125.8972168 C-3.88261473 130.13185076 -4.28028617 134.35438811 -4.46484375 138.60546875 C-4.7746679 145.53495031 -5.50631782 150.50227719 -9.25 156.375 C-9.6625 157.2825 -10.075 158.19 -10.5 159.125 C-13.11659658 162.4891956 -16.25224815 164.01312849 -20.25 165.375 C-24.125 165.8125 -24.125 165.8125 -27.25 165.375 C-32.72161962 157.16757057 -28.43956559 142.21463092 -27.25 132.75 C-24.83983883 119.02916935 -24.83983883 119.02916935 -25.25 105.375 C-26.66167843 103.81952076 -26.66167843 103.81952076 -28.375 102.6875 C-32.35418295 99.86722369 -33.93265049 96.35999948 -35.6875 91.9375 C-35.94611816 91.30432861 -36.20473633 90.67115723 -36.47119141 90.01879883 C-38.10605065 85.68177161 -38.66317139 81.9868861 -38.25 77.375 C-34.54664389 71.65163146 -29.8448877 68.15036794 -23.0625 66.6875 C-19.17896653 64.87518438 -18.56837959 62.56443287 -17.0390625 58.69140625 C-16.40817176 56.8393359 -15.87469202 54.95419121 -15.375 53.0625 C-13.77015146 49.22869516 -11.95627707 48.19444511 -8.25 46.375 C-5.25101699 45.68447786 -2.33051412 45.19016915 0.75 45.375 C2.75 47.375 2.75 47.375 2.97705078 49.34619141 C2.96657715 50.13171387 2.95610352 50.91723633 2.9453125 51.7265625 C2.93886719 52.57734375 2.93242187 53.428125 2.92578125 54.3046875 C2.90902344 55.19414062 2.89226562 56.08359375 2.875 57 C2.86597656 57.8971875 2.85695312 58.794375 2.84765625 59.71875 C2.8240497 61.93776586 2.7911231 64.15625077 2.75 66.375 C4.4 66.705 6.05 67.035 7.75 67.375 C7.85957031 66.69953125 7.96914062 66.0240625 8.08203125 65.328125 C8.24058594 64.43609375 8.39914063 63.5440625 8.5625 62.625 C8.71332031 61.74328125 8.86414063 60.8615625 9.01953125 59.953125 C9.80414248 57.1839089 10.89595359 55.5490599 12.75 53.375 C17.625 54.25 17.625 54.25 18.75 55.375 C18.75 57.09782593 18.74819214 58.82067895 18.73535156 60.54345703 C18.60502678 66.9603102 18.60502678 66.9603102 21.640625 72.3046875 C23.98267402 73.54105572 23.98267402 73.54105572 26.47265625 74.453125 C28.75 75.375 28.75 75.375 31.4375 78.25 C32.200625 78.95125 32.96375 79.6525 33.75 80.375 C44.8054621 79.6553231 54.46383917 69.98550504 61.75 62.375 C65.50921861 57.58181163 68.27533688 53.34164449 69.25 47.25 C68.24644077 39.47241599 61.75042859 33.84657378 55.91015625 29.0078125 C43.51718779 19.64025226 30.97575601 17.88903074 15.75 19.375 C2.40096673 21.48055201 -10.63751193 26.69785394 -20.25 36.375 C-23.20267077 36.375 -24.16311983 35.45661471 -26.3125 33.4375 C-27.2715625 32.4165625 -27.2715625 32.4165625 -28.25 31.375 C-29.24 30.715 -30.23 30.055 -31.25 29.375 C-30.92970296 26.38556095 -30.3219706 25.44080169 -28.0625 23.375 C-22.85741363 19.67360525 -17.91589574 16.44350834 -11.9296875 14.1640625 C-10.05101007 13.49318689 -10.05101007 13.49318689 -9.25 11.375 C-9.73855469 11.68953125 -10.22710937 12.0040625 -10.73046875 12.328125 C-14.26799528 13.79798099 -17.78407604 13.92252611 -21.5625 14.125 C-22.66368164 14.20814453 -22.66368164 14.20814453 -23.78710938 14.29296875 C-28.73768269 14.58288697 -32.57157581 14.04543347 -37.25 12.375 C-38.25 11.375 -38.25 11.375 -38.625 9 C-38.25 6.375 -38.25 6.375 -36.19140625 4.81640625 C-25.37667282 -0.483244 -11.72985176 0.07179322 0 0 Z " fill="#040404" transform="translate(234.25,262.625)"/>
<path d="M0 0 C2.12605709 -0.00965512 4.2511234 -0.04075726 6.37695312 -0.07226562 C15.02209718 -0.13777619 23.03815714 0.73911655 31.49291992 2.52905273 C34.3581559 3.10590203 37.06837393 3.48395529 39.97460938 3.69726562 C44.69035462 4.14995034 48.59222777 5.90848969 52.83789062 7.92773438 C53.62196289 8.2914917 54.40603516 8.65524902 55.21386719 9.0300293 C56.77771685 9.75913005 58.33885424 10.49408192 59.89697266 11.23535156 C61.70702958 12.08992765 63.53451682 12.90742701 65.36523438 13.71679688 C81.02856896 20.90721356 94.64875247 32.95654466 101.02539062 49.24023438 C102.96256956 57.07587482 103.04793388 64.83046599 99.35351562 72.11523438 C96.9860187 75.90322945 94.16281446 79.07587986 91.02539062 82.24023438 C90.5484375 82.76359375 90.07148438 83.28695312 89.58007812 83.82617188 C80.79758069 92.51670599 65.48022981 96.51741164 54.02539062 100.24023438 C54.15391914 102.14607419 54.15391914 102.14607419 55.02539062 104.24023438 C57.21652067 105.94385881 57.21652067 105.94385881 59.96289062 107.42773438 C66.60134413 111.44869129 72.2042039 116.28061615 77.58886719 121.86035156 C81.83956631 126.24154401 86.33531859 129.91421208 91.27539062 133.49023438 C92.67804528 134.51406989 94.07914778 135.54003604 95.47851562 136.56835938 C96.08856445 137.01083008 96.69861328 137.45330078 97.32714844 137.90917969 C101.93337785 141.5194676 101.93337785 141.5194676 102.40039062 145.17773438 C101.97886144 148.62022268 101.68805934 150.00702836 99.02539062 152.24023438 C93.82788152 152.91398556 91.34256617 151.93846909 87.02539062 149.24023438 C83.3301511 148.52100229 83.3301511 148.52100229 80.02539062 148.24023438 C79.65414062 149.63242187 79.65414062 149.63242187 79.27539062 151.05273438 C77.89518253 154.57226502 77.42804232 155.66977975 74.02539062 157.24023438 C66.44205107 158.66211054 60.62667244 155.65314198 54.02539062 152.24023438 C53.11599731 151.84384766 53.11599731 151.84384766 52.18823242 151.43945312 C46.42409382 148.83724764 42.3628498 145.23515288 37.96289062 140.74023438 C37.26115723 140.03116943 36.55942383 139.32210449 35.83642578 138.59155273 C30.35195081 132.89870106 26.65260989 127.2609865 23.02539062 120.24023438 C21.42619116 117.78573273 19.77394734 115.3804745 18.09179688 112.98242188 C17.02539062 111.24023438 17.02539062 111.24023438 17.02539062 109.24023438 C16.03539062 109.24023438 15.04539062 109.24023438 14.02539062 109.24023438 C14.03699219 110.18125 14.04859375 111.12226563 14.06054688 112.09179688 C14.06957031 113.33703125 14.07859375 114.58226562 14.08789062 115.86523438 C14.09949219 117.095 14.11109375 118.32476562 14.12304688 119.59179688 C14.02539062 123.24023438 14.02539062 123.24023438 13.54882812 126.06835938 C12.67553073 131.36028087 12.66621984 136.71732471 12.5078125 142.07226562 C12.47365234 142.93464844 12.43949219 143.79703125 12.40429688 144.68554688 C12.36671265 145.8536792 12.36671265 145.8536792 12.32836914 147.04541016 C11.99518881 149.45902112 11.22411771 151.13414372 10.02539062 153.24023438 C6.15039062 152.36523438 6.15039062 152.36523438 5.02539062 151.24023438 C4.2721886 136.30911187 5.2259838 120.7254729 9.02539062 106.24023438 C4.89741757 106.84728924 1.6510024 108.18022768 -1.97460938 110.24023438 C-2.30460937 110.90023437 -2.63460937 111.56023437 -2.97460938 112.24023438 C-1.98460937 112.57023437 -0.99460937 112.90023437 0.02539062 113.24023438 C-0.11349443 116.51140169 -0.2619143 119.78206838 -0.41210938 123.05273438 C-0.45142578 123.98150391 -0.49074219 124.91027344 -0.53125 125.8671875 C-0.5940918 127.20620117 -0.5940918 127.20620117 -0.65820312 128.57226562 C-0.69486084 129.3944458 -0.73151855 130.21662598 -0.76928711 131.0637207 C-0.97460938 133.24023438 -0.97460938 133.24023438 -1.97460938 136.24023438 C-2.07617562 137.88504321 -2.15690979 139.53118387 -2.22460938 141.17773438 C-2.7962905 147.99253638 -4.6346746 156.26769242 -9.92773438 160.97851562 C-14.21785774 163.62300006 -18.83792819 166.23903349 -23.97460938 165.24023438 C-25.78710938 163.80273438 -25.78710938 163.80273438 -26.97460938 161.24023438 C-27.442136 152.59099179 -26.1117607 144.05412245 -25.03710938 135.49023438 C-24.40656177 130.41706648 -23.78881684 125.34292552 -23.20910645 120.26367188 C-22.98200445 118.30404527 -22.73882827 116.34630224 -22.49511719 114.38867188 C-22.37104492 113.23109375 -22.24697266 112.07351562 -22.11914062 110.88085938 C-22.0028833 109.87055664 -21.88662598 108.86025391 -21.7668457 107.81933594 C-21.73396674 105.13921642 -21.73396674 105.13921642 -23.63891602 103.23608398 C-25.01491036 102.18631218 -26.41298793 101.16516146 -27.82617188 100.16601562 C-33.21776529 95.33318734 -35.17264408 86.82967712 -35.72460938 79.80273438 C-35.50181524 76.18526111 -34.72992412 74.36465668 -32.09960938 71.86523438 C-27.67563739 68.68069831 -21.53787836 65.24023438 -15.97460938 65.24023438 C-15.80445313 64.35980469 -15.63429688 63.479375 -15.45898438 62.57226562 C-15.21664063 61.41082031 -14.97429687 60.249375 -14.72460938 59.05273438 C-14.49257813 57.90417969 -14.26054687 56.755625 -14.02148438 55.57226562 C-12.41122617 50.44707814 -10.26806539 47.92223845 -5.53710938 45.42773438 C-0.13250411 43.62619929 -0.13250411 43.62619929 3.02539062 44.24023438 C5.61247302 46.47047782 5.99158778 47.90896646 6.33789062 51.30273438 C5.93622293 56.36374735 5.03234312 61.26840643 4.02539062 66.24023438 C6.44184844 66.40710885 6.44184844 66.40710885 9.02539062 66.24023438 C11.33725893 63.92836607 11.45385667 62.88367111 12.02539062 59.74023438 C12.8031684 55.4624566 12.8031684 55.4624566 15.02539062 53.24023438 C17.58789062 53.05273438 17.58789062 53.05273438 20.02539062 53.24023438 C20.35539062 53.57023437 20.68539062 53.90023437 21.02539062 54.24023438 C21.00645837 55.94624101 20.98647613 57.6522449 20.96020508 59.3581543 C20.8633509 65.9634525 20.8633509 65.9634525 24.17382812 71.42773438 C26.7877894 72.96188679 26.7877894 72.96188679 29.48242188 74.06445312 C32.02539062 75.24023438 32.02539062 75.24023438 33.97460938 77.38476562 C35.93243553 79.4954885 35.93243553 79.4954885 38.91992188 79.70117188 C49.77722881 78.08964707 61.73614955 65.97101185 68.08789062 57.42773438 C71.10002309 52.47229065 72.48993949 49.09064667 72.02539062 43.24023438 C65.06869473 30.70223519 52.40873867 22.83252044 39.11914062 18.63867188 C29.6442907 16.83562208 20.23468465 18.05752221 11.02539062 20.49023438 C10.24929443 20.69471191 9.47319824 20.89918945 8.67358398 21.10986328 C1.60294211 23.1191983 -4.69660171 26.1875265 -10.78710938 30.30273438 C-11.87958984 31.03169922 -11.87958984 31.03169922 -12.99414062 31.77539062 C-14.84136705 33.14168236 -16.40300054 34.56947041 -17.97460938 36.24023438 C-20.88741775 34.93449269 -22.7775543 33.53281358 -24.97460938 31.24023438 C-25.96460938 30.58023438 -26.95460938 29.92023438 -27.97460938 29.24023438 C-27.66864373 26.05491341 -27.35815667 24.60627852 -25.00585938 22.36132812 C-11.2924748 13.24023438 -11.2924748 13.24023438 -5.97460938 13.24023438 C-5.97460938 12.58023438 -5.97460938 11.92023438 -5.97460938 11.24023438 C-6.96460938 11.57023437 -7.95460938 11.90023437 -8.97460938 12.24023438 C-10.92976548 12.44076321 -12.88897046 12.60333191 -14.84960938 12.74023438 C-17.84050718 12.95012194 -20.63975962 13.15968806 -23.55664062 13.86132812 C-26.43934104 14.31305985 -28.07209744 13.81579853 -30.78710938 12.80273438 C-31.57730469 12.51527344 -32.3675 12.2278125 -33.18164062 11.93164062 C-33.77332031 11.70347656 -34.365 11.4753125 -34.97460938 11.24023438 C-35.30460937 9.59023437 -35.63460938 7.94023438 -35.97460938 6.24023438 C-25.41603277 -0.7988167 -12.20651948 0.0333208 0 0 Z " fill="#040404" transform="translate(348.974609375,64.759765625)"/>
<path d="M0 0 C0.763125 0.061875 1.52625 0.12375 2.3125 0.1875 C2.4775 0.97125 2.6425 1.755 2.8125 2.5625 C4.01089525 5.29471184 4.01089525 5.29471184 6.19140625 5.9296875 C7.63153911 6.26460212 9.08019006 6.56502081 10.53515625 6.828125 C12.3125 7.1875 12.3125 7.1875 13.3125 8.1875 C13.66828817 11.92327576 13.37528229 14.04885578 11.8125 17.5 C9.65161973 22.81216399 9.49668281 27.74004843 11.3125 33.1875 C11.68581498 36.06319196 12.01889081 38.92857363 12.3125 41.8125 C12.44277588 43.08250854 12.44277588 43.08250854 12.57568359 44.37817383 C13.92921392 57.99347001 14.47819676 71.50831181 14.3125 85.1875 C12.9925 85.5175 11.6725 85.8475 10.3125 86.1875 C8.60730512 83.18780348 8.01089504 80.83828458 7.78515625 77.40625 C7.68243408 76.02796021 7.68243408 76.02796021 7.57763672 74.62182617 C7.5107666 73.65349854 7.44389648 72.6851709 7.375 71.6875 C6.81012638 64.43553687 5.93472525 57.69328241 3.91015625 50.68359375 C2.97756495 46.7886536 3.11323042 43.17289167 3.3125 39.1875 C0.92181135 41.18543173 0.92181135 41.18543173 0.01611328 44.07495117 C0.07387939 45.14193237 0.07387939 45.14193237 0.1328125 46.23046875 C0.17196777 47.04515625 0.21112305 47.85984375 0.25146484 48.69921875 C0.31285645 49.58222656 0.37424805 50.46523438 0.4375 51.375 C0.49244629 52.29539062 0.54739258 53.21578125 0.60400391 54.1640625 C1.62709337 69.60105799 3.19509333 85.23634954 7.3125 100.1875 C9.2925 100.6825 9.2925 100.6825 11.3125 101.1875 C11.6425 98.2175 11.9725 95.2475 12.3125 92.1875 C13.6325 92.1875 14.9525 92.1875 16.3125 92.1875 C18.41566798 94.29066798 17.75699765 98.67535568 17.93359375 101.5234375 C18.14834594 104.40928086 18.14834594 104.40928086 20.3125 107.1875 C21.10528162 113.74596612 20.4160897 118.36826932 17.3125 124.1875 C16.96895588 128.51615587 17.06182052 131.35712421 18.3125 135.5 C19.62591264 140.34320911 20.05091788 145.20119432 19.3125 150.1875 C17.90625 152.01953125 17.90625 152.01953125 16.3125 153.1875 C12.3822384 153.05197374 9.47704244 150.29719496 6.3125 148.1875 C5.178125 147.795625 4.04375 147.40375 2.875 147 C-5.34954506 142.81558234 -8.83080575 134.15291585 -12.6875 126.1875 C-17.04115427 126.01240201 -21.39389697 125.9063719 -25.75 125.8125 C-26.97912109 125.76222656 -28.20824219 125.71195312 -29.47460938 125.66015625 C-37.32592028 125.41435625 -37.32592028 125.41435625 -43.8828125 129.2109375 C-44.61975342 130.04117432 -44.61975342 130.04117432 -45.37158203 130.88818359 C-46.6875 132.1875 -46.6875 132.1875 -49.5 132.1875 C-51.6875 131.1875 -51.6875 131.1875 -53.6875 129.1875 C-55.7322832 129.21373522 -55.7322832 129.21373522 -57.6875 130.1875 C-58.9784484 131.88590841 -58.9784484 131.88590841 -59.9375 134.0625 C-62.952855 139.88176742 -66.7568652 144.95828958 -70.6875 150.1875 C-71.514745 151.29786275 -72.34155679 152.40854836 -73.16796875 153.51953125 C-79.46344786 161.96344786 -79.46344786 161.96344786 -80.6875 163.1875 C-83.6875 163.3125 -83.6875 163.3125 -86.6875 163.1875 C-87.6875 162.1875 -87.6875 162.1875 -88.1875 159.25 C-88.1875 153.61591149 -84.0149603 149.40624431 -80.6875 145.1875 C-81.43 145.868125 -82.1725 146.54875 -82.9375 147.25 C-85.6875 149.1875 -85.6875 149.1875 -88 148.9375 C-88.8353125 148.56625 -88.8353125 148.56625 -89.6875 148.1875 C-90.453125 146.05859375 -90.453125 146.05859375 -90.6875 143.1875 C-89.35428407 140.96445417 -88.09113779 139.20722596 -86.4375 137.25 C-85.98439453 136.68788818 -85.53128906 136.12577637 -85.06445312 135.54663086 C-84.10290812 134.35442716 -83.13528772 133.16710166 -82.16210938 131.984375 C-79.79813888 129.10377519 -77.49181803 126.1783956 -75.1875 123.25 C-74.72754639 122.66645752 -74.26759277 122.08291504 -73.79370117 121.48168945 C-66.12039866 111.69449241 -59.14969277 101.45521559 -52.2980957 91.08227539 C-48.77888966 85.7710637 -45.14092653 80.55897494 -41.4375 75.375 C-37.85662453 70.3244663 -34.29306992 65.26638635 -30.9375 60.0625 C-30.30328125 59.09054687 -29.6690625 58.11859375 -29.015625 57.1171875 C-27.03468307 52.74746265 -27.07218156 49.11072787 -28.52734375 44.5625 C-29.07068359 43.386875 -29.07068359 43.386875 -29.625 42.1875 C-31.37404307 38.15549546 -32.15132524 34.56626056 -32.6875 30.1875 C-33.3475 29.1975 -34.0075 28.2075 -34.6875 27.1875 C-34.8125 24 -34.8125 24 -34.6875 21.1875 C-31.761584 19.724542 -29.93132653 19.74226891 -26.6875 20.1875 C-22.41798082 24.25370875 -20.15954631 28.87717831 -17.6875 34.1875 C-14.4628352 33.62706562 -14.4628352 33.62706562 -12.3125 31.25 C-11.26263685 26.10567055 -12.81962289 20.97069211 -14.3671875 16.0078125 C-14.875 14 -14.875 14 -14.6875 10.1875 C-12.62481787 8.00657495 -10.4755512 6.40050885 -7.984375 4.73046875 C-5.68329974 3.30132692 -5.68329974 3.30132692 -4.05859375 1.5 C-2.6875 0.1875 -2.6875 0.1875 0 0 Z " fill="#040404" transform="translate(152.6875,273.8125)"/>
<path d="M0 0 C3.40330597 0.87264256 4.29919813 2.90352489 6.4375 5.625 C9.55883744 6.97272903 9.55883744 6.97272903 12.4375 7.625 C13.71199189 11.21674986 13.30547806 13.37189428 12 16.8125 C10.1805176 21.76415072 9.92288548 26.3897869 10.4375 31.625 C10.9325 32.615 10.9325 32.615 11.4375 33.625 C11.73469929 36.14195894 11.98233864 38.64339949 12.19140625 41.16796875 C12.25657944 41.92862137 12.32175262 42.68927399 12.38890076 43.47297668 C12.52627774 45.09272744 12.66147278 46.71266448 12.79467773 48.33276367 C12.99551753 50.75836396 13.20722156 53.18283686 13.41992188 55.60742188 C14.24414275 65.30964705 14.62535203 74.88664198 14.4375 84.625 C13.1175 84.955 11.7975 85.285 10.4375 85.625 C7.97926734 81.93765101 8.07232451 78.96316313 7.9375 74.6875 C7.56517027 66.44105344 7.03173153 58.23055775 4.3125 50.375 C3.13292874 46.66777603 3.30369183 43.50543703 3.4375 39.625 C1.04681135 41.62293173 1.04681135 41.62293173 0.14111328 44.51245117 C0.19887939 45.57943237 0.19887939 45.57943237 0.2578125 46.66796875 C0.29704834 47.48281738 0.33628418 48.29766602 0.37670898 49.13720703 C0.46867554 50.46147705 0.46867554 50.46147705 0.5625 51.8125 C0.61672119 52.73144043 0.67094238 53.65038086 0.72680664 54.59716797 C1.58836502 67.69769672 3.25491418 80.7626308 5.41015625 93.7109375 C5.558479 94.60603027 5.70680176 95.50112305 5.85961914 96.42333984 C6.28892101 98.81270277 6.28892101 98.81270277 8.4375 100.625 C10.4175 101.12 10.4175 101.12 12.4375 101.625 C12.4375 98.655 12.4375 95.685 12.4375 92.625 C13.7575 92.625 15.0775 92.625 16.4375 92.625 C18.42519494 94.61269494 17.8714874 98.38690368 18.05859375 101.08203125 C18.29741362 103.61144148 18.29741362 103.61144148 19.453125 105.61328125 C21.41190649 109.61634659 20.87442554 114.28107361 20.4375 118.625 C19.50045743 120.6552589 18.50824592 122.66196582 17.4375 124.625 C17.0084753 129.25846674 17.76191273 132.91393209 18.984375 137.3671875 C19.85462887 141.70345245 19.94008801 146.23474592 19.4375 150.625 C17.4375 152.625 17.4375 152.625 15.125 153 C11.57748529 152.50499795 10.20514151 150.88943396 7.4375 148.625 C5.98597894 148.08547236 4.52679876 147.56631805 3.0625 147.0625 C-4.77019517 143.78582252 -8.10523305 134.92367468 -11.5625 127.625 C-14.27826001 124.90923999 -22.0423635 126.24210173 -25.6875 126.1875 C-27.52441406 126.11885742 -27.52441406 126.11885742 -29.3984375 126.04882812 C-37.2212697 125.84789451 -37.2212697 125.84789451 -43.75390625 129.64453125 C-44.49169312 130.47174683 -44.49169312 130.47174683 -45.24438477 131.31567383 C-46.5625 132.625 -46.5625 132.625 -49.375 132.75 C-51.98365334 131.40840685 -52.59555301 130.35003243 -53.5625 127.625 C-56.67786079 128.30977263 -56.67786079 128.30977263 -57.88671875 130.7421875 C-58.33660156 131.65226563 -58.78648438 132.56234375 -59.25 133.5 C-61.92573911 138.60763008 -64.94743392 143.1709067 -68.41796875 147.76953125 C-69.94954361 149.80884132 -71.42021225 151.84982329 -72.86328125 153.94921875 C-73.63797752 155.04950967 -74.41271616 156.14977075 -75.1875 157.25 C-75.88101563 158.25289062 -76.57453125 159.25578125 -77.2890625 160.2890625 C-80.0450302 163.12079564 -81.66479475 163.48617762 -85.5625 163.625 C-86.2225 163.295 -86.8825 162.965 -87.5625 162.625 C-88.44589877 155.70504293 -85.68118832 152.03077841 -81.5625 146.625 C-82.17609375 147.12644531 -82.7896875 147.62789062 -83.421875 148.14453125 C-85.5625 149.625 -85.5625 149.625 -87.8125 149.3125 C-88.67875 148.9721875 -88.67875 148.9721875 -89.5625 148.625 C-90.38671875 146.5859375 -90.38671875 146.5859375 -90.5625 143.625 C-89.18009565 140.90470806 -87.28355509 138.61987552 -85.375 136.25 C-84.55177246 135.18845703 -84.55177246 135.18845703 -83.71191406 134.10546875 C-81.07606621 130.72362622 -78.38124273 127.39295322 -75.65234375 124.0859375 C-67.89816473 114.65839675 -61.16698371 104.71470836 -54.46484375 94.515625 C-51.12003581 89.43419998 -47.66555076 84.44640847 -44.125 79.5 C-39.01995988 72.35739938 -34.2511887 65.04700498 -29.5625 57.625 C-28.9025 56.635 -28.2425 55.645 -27.5625 54.625 C-26.8781954 49.0365124 -28.37168572 45.20928172 -30.54296875 40.19921875 C-31.82367552 36.96555684 -32.52677748 33.74954311 -33.16796875 30.33984375 C-33.40797109 28.6026745 -33.40797109 28.6026745 -34.5625 27.625 C-34.8125 24.6875 -34.8125 24.6875 -34.5625 21.625 C-31.5625 19.625 -31.5625 19.625 -28.75 19.375 C-23.66053147 21.37087001 -21.82553652 25.82618315 -19.5625 30.625 C-18.89453125 32.94921875 -18.89453125 32.94921875 -18.5625 34.625 C-16.11025306 34.51886164 -16.11025306 34.51886164 -13.5625 33.625 C-11.7957537 30.81426726 -11.51897174 29.11469297 -11.8125 25.8125 C-12.21972438 24.08179638 -12.63854459 22.35295315 -13.1171875 20.640625 C-15.15619553 13.21081493 -15.15619553 13.21081493 -13.5625 9.625 C-10.8125 7.625 -10.8125 7.625 -7.5625 5.625 C-6.2940625 4.26375 -6.2940625 4.26375 -5 2.875 C-2.5625 0.625 -2.5625 0.625 0 0 Z " fill="#040404" transform="translate(123.5625,83.375)"/>
<path d="M0 0 C0.93199219 0.17917969 1.86398438 0.35835937 2.82421875 0.54296875 C10.82628962 2.34425346 19.06991899 5.06991899 25 11 C25.25 13.5 25.25 13.5 25 16 C24.34 16.66 23.68 17.32 23 18 C22.58534338 21.83557374 23.41030766 24.52254801 25 28 C24.0925 28.37125 23.185 28.7425 22.25 29.125 C18.85889946 30.76120707 18.85889946 30.76120707 17.125 33.8125 C11.81513045 41.77730433 2.02509796 46.18289139 -6 51 C-6.73089844 51.46148437 -7.46179688 51.92296875 -8.21484375 52.3984375 C-11.60206454 54.4885825 -13.99362632 55.48562105 -18 55 C-16.56310869 51.34037942 -15.00926589 50.13275508 -11.53515625 48.37890625 C-10.65279297 47.91806641 -9.77042969 47.45722656 -8.86132812 46.98242188 C-7.00012483 46.03818266 -5.1381483 45.09546596 -3.27539062 44.15429688 C1.57085495 41.61982709 4.48268135 40.02592686 7 35 C9.0078125 33.9609375 9.0078125 33.9609375 11.125 33.375 C13.22600811 32.83705839 13.22600811 32.83705839 15 32 C15.33 31.01 15.66 30.02 16 29 C9.90799137 28.230183 6.80539296 30.70641784 2.0625 34.0625 C-13.5606334 44.59887483 -35.62158119 55.99376507 -55 55 C-54.53996244 48.69394662 -52.96409007 44.25693917 -50.0625 38.6875 C-47.22105487 32.9679339 -45.18994752 27.88928052 -44.3515625 21.50390625 C-43.96496182 18.75045032 -43.32411641 16.17335053 -42.5625 13.5 C-42.33691406 12.7059375 -42.11132812 11.911875 -41.87890625 11.09375 C-40.84447939 8.62951535 -40.17427664 7.57384878 -38 6 C-35.49902966 5.15958123 -33.11979583 4.47345257 -30.5625 3.875 C-29.85254883 3.70178223 -29.14259766 3.52856445 -28.41113281 3.35009766 C-23.10504952 2.11360139 -17.90550515 1.47142896 -12.453125 1.2734375 C-9.98938808 1.158649 -9.98938808 1.158649 -8.046875 -0.0859375 C-5.09546273 -1.40393458 -3.1102222 -0.70028902 0 0 Z " fill="#F7F7F7" transform="translate(245,160)"/>
<path d="M0 0 C1.875 1.125 1.875 1.125 3 3 C2.70974774 9.08002105 0.61185339 13.08824715 -2.5 18.125 C-2.94996338 18.87362305 -3.39992676 19.62224609 -3.86352539 20.39355469 C-6.55135016 24.8130088 -9.4087029 29.0545957 -12.4375 33.25 C-22.12147561 46.96182388 -28.92473374 62.42281867 -35 78 C-35.42152344 78.97582031 -35.84304688 79.95164062 -36.27734375 80.95703125 C-37.95215099 84.83710069 -39.14399105 88.14546074 -39.4375 92.375 C-40.06677721 100.61414114 -43.85727034 109.42868705 -50 115 C-52.02564641 115.89542326 -53.99419494 116.58988113 -56.1328125 117.1640625 C-58.67460009 118.30201761 -59.56616946 119.62962118 -61 122 C-61.86248644 124.56350136 -62.50232762 127.1343382 -63.15625 129.7578125 C-64 132 -64 132 -67 134 C-69.77442676 133.79191799 -71.45335754 133.42573801 -73.66015625 131.70703125 C-75 130 -75 130 -75.21484375 128.0546875 C-74.46354753 122.15013412 -72.6877191 117.2970464 -70 112 C-67.99147105 107.98294211 -68.64756205 103.07934122 -70 98.9375 C-70 96 -70 96 -68.390625 94.25 C-66.94828779 93.02875097 -65.48799847 91.82843072 -64.01171875 90.6484375 C-61.54975171 88.63105868 -60.22159477 86.94619916 -59 84 C-58.9175 82.783125 -58.835 81.56625 -58.75 80.3125 C-58.29253085 75.49561894 -55.86568624 72.62147597 -53.03515625 68.8203125 C-45.10137443 57.82570506 -38.8210759 45.44360718 -37.125 31.875 C-36.17830985 25.03677211 -33.0447055 19.53106721 -29 14 C-25.5647952 11.70986347 -24.014669 11.82157027 -20 12 C-20.53502328 16.54769788 -22.45482997 19.26178152 -25 23 C-25.76939681 25.22602615 -25.76939681 25.22602615 -26 27 C-25.34 27 -24.68 27 -24 27 C-23.75765625 26.30390625 -23.5153125 25.6078125 -23.265625 24.890625 C-21.78486691 21.50864665 -19.88739091 18.75979536 -17.75 15.75 C-16.94063169 14.60471365 -16.13204122 13.45887722 -15.32421875 12.3125 C-14.92895996 11.75304687 -14.53370117 11.19359375 -14.12646484 10.6171875 C-12.07064253 7.66578589 -10.13116503 4.63783031 -8.19140625 1.609375 C-5.76570198 -1.66731405 -3.62422542 -1.0607489 0 0 Z " fill="#040404" transform="translate(451,226)"/>
<path d="M0 0 C0.33 0 0.66 0 1 0 C1 1.65 1 3.3 1 5 C1.66 5 2.32 5 3 5 C3.37125 5.70125 3.7425 6.4025 4.125 7.125 C6.33898926 10.51978353 8.79877977 12.25538512 12.0703125 14.57421875 C14 16 14 16 16.3125 18.375 C17.96970876 20.34682084 17.96970876 20.34682084 21 20 C20.40072174 16.64404172 19.15377564 14.62198774 17 12 C18.875 8.125 18.875 8.125 20 7 C23.10085221 6.83958807 26.18187579 6.74036598 29.28515625 6.68359375 C30.68138466 6.6524221 30.68138466 6.6524221 32.1058197 6.62062073 C35.09130182 6.55502069 38.07687484 6.49619198 41.0625 6.4375 C43.08138976 6.3943247 45.1002702 6.35071075 47.11914062 6.30664062 C52.07933297 6.19932871 57.03961709 6.09809112 62 6 C62 7.32 62 8.64 62 10 C61.28972656 10.30292969 60.57945312 10.60585937 59.84765625 10.91796875 C58.46900391 11.54638672 58.46900391 11.54638672 57.0625 12.1875 C56.14597656 12.59355469 55.22945313 12.99960938 54.28515625 13.41796875 C51.75182704 14.8223391 51.75182704 14.8223391 51.18359375 17.67578125 C51.09271484 18.82626953 51.09271484 18.82626953 51 20 C52.32 20.99 53.64 21.98 55 23 C54.34 24.32 53.68 25.64 53 27 C52.31470215 26.87125488 51.6294043 26.74250977 50.92333984 26.60986328 C43.2013651 25.48166563 39.10329655 26.74161244 32.625 30.875 C30.89920126 31.8972484 29.16855177 32.91134383 27.43359375 33.91796875 C26.54784668 34.43278809 25.66209961 34.94760742 24.74951172 35.47802734 C20.1875346 38.00327733 15.47123588 40.12089226 10.6875 42.1875 C9.8227002 42.57341309 8.95790039 42.95932617 8.06689453 43.35693359 C3.13855927 45.45473428 -0.63675329 46.545535 -6 46 C-7 45 -7 45 -7.25 42.875 C-6.99078678 39.89404793 -6.07473949 37.80190663 -4.86328125 35.09765625 C-0.24098099 23.86609407 -0.30408561 11.95510041 0 0 Z " fill="#F3F3F3" transform="translate(218,97)"/>
<path d="M0 0 C0.99 0.66 1.98 1.32 3 2 C4.34386088 1.71202981 5.6757713 1.36784131 7 1 C11.87295513 0.34402527 14.42958598 0.96549952 18.3125 3.8125 C21.89348415 6.66180959 23.83823759 8.72900964 24.4375 13.4375 C24 17 24 17 21.625 19.375 C17.14460693 22.14857666 13.21962841 22.70904358 8.03515625 23.5 C4.85712852 23.97304311 4.85712852 23.97304311 1.25 25 C-4.76109014 25 -8.35048337 20.5670408 -12.5 16.625 C-14.55745061 13.02446143 -14.83530332 10.05367789 -14 6 C-10.28666885 0.18244787 -6.75481313 -0.78917619 0 0 Z " fill="#070707" transform="translate(367,392)"/>
<path d="M0 0 C1.32 0.33 2.64 0.66 4 1 C3.48357735 6.29333218 1.90807082 9.63789377 -1 14 C-1.99 14.33 -2.98 14.66 -4 15 C-4.00257813 15.60328125 -4.00515625 16.2065625 -4.0078125 16.828125 C-4.21269328 21.06232776 -4.36461902 23.31310164 -7.3125 26.5 C-10.89324965 27.95657613 -12.73781915 28.1222018 -16.5 28.1875 C-22.34940115 28.42699161 -25.52808955 30.31287029 -30.125 33.625 C-34.28274808 36.60394043 -37.32537226 38.67819205 -42.625 38.0625 C-44.08741756 37.72559493 -45.54635405 37.37293913 -47 37 C-48.32 37 -49.64 37 -51 37 C-51 36.01 -51 35.02 -51 34 C-50.20335937 33.68546875 -49.40671875 33.3709375 -48.5859375 33.046875 C-42.94961728 30.77040503 -38.0471194 28.40387123 -33 25 C-30.68925595 24.25881795 -28.35188447 23.59793673 -26 23 C-24.45282677 22.56061345 -22.91118154 22.10139461 -21.375 21.625 C-20.66085937 21.41101563 -19.94671875 21.19703125 -19.2109375 20.9765625 C-14.12758077 18.73126359 -10.80539632 14.81218341 -7.375 10.5625 C-6.61960937 9.63566406 -5.86421875 8.70882812 -5.0859375 7.75390625 C-3.18810876 5.24834583 -1.55471749 2.72818261 0 0 Z " fill="#E7E7E7" transform="translate(292,106)"/>
<path d="M0 0 C1.9375 0.1875 1.9375 0.1875 4 1 C6.97190261 5.61012455 6.59943305 10.72037809 6 16 C3.80157907 20.85484622 0.45942483 23.43623707 -3.8046875 26.41796875 C-6.04330119 27.97924478 -6.04330119 27.97924478 -8.1328125 29.86328125 C-13.14139665 34.1986686 -17.01332916 35.88892642 -23.6171875 36.61328125 C-26.25840395 36.87309418 -26.25840395 36.87309418 -29 39 C-29.99 38.67 -30.98 38.34 -32 38 C-30.31399234 36.54843719 -28.62535011 35.10044798 -26.9296875 33.66015625 C-25.75094341 32.64605455 -24.58557875 31.61577527 -23.4453125 30.55859375 C-20.80733954 28.17015877 -19.14934975 27.0304231 -15.625 26.3125 C-9.45126303 24.07718144 -5.56869235 18.31681029 -2.8046875 12.47265625 C-2.001988 10.00610876 -1.64096364 7.83009215 -1.4375 5.25 C-1.1009009 1.1009009 -1.1009009 1.1009009 0 0 Z " fill="#E7E7E7" transform="translate(432,110)"/>
<path d="M0 0 C2.65354511 0.97296654 3.79877896 1.65792423 5.25 4.125 C6.68271782 9.61708496 6.64255844 13.44715044 4.5 18.625 C2.29275292 22.06022256 -0.53383409 24.16835713 -3.875 26.453125 C-6.07078531 28.05152754 -7.84013043 29.82421485 -9.75 31.75 C-13.90256146 35.50629317 -17.89860529 36.07451038 -23.36328125 36.61328125 C-26.22500545 36.84083016 -26.22500545 36.84083016 -29 39 C-29.99 38.67 -30.98 38.34 -32 38 C-30.15738856 36.36010607 -28.30263888 34.73893424 -26.4375 33.125 C-25.92380859 32.66480469 -25.41011719 32.20460938 -24.88085938 31.73046875 C-21.09476377 28.48524395 -17.8816785 27.28556658 -13 26 C-7.29570282 21.69117466 -2.94090982 13.51933063 -1.50390625 6.6171875 C-1.28639056 4.74989894 -1.13636093 2.87496276 -1 1 C-0.67 0.67 -0.34 0.34 0 0 Z " fill="#E6E6E6" transform="translate(315,308)"/>
<path d="M0 0 C0.66 0.66 1.32 1.32 2 2 C-2.39523429 7.66106177 -6.75742534 11.1230586 -12.9375 14.6875 C-14.09668945 15.37682617 -14.09668945 15.37682617 -15.27929688 16.08007812 C-17.51078182 17.40236971 -19.75469895 18.70135955 -22 20 C-23.00099731 20.60013916 -23.00099731 20.60013916 -24.0222168 21.21240234 C-27.55091313 23.30619119 -29.83912902 24.504348 -34 24 C-32.56310869 20.34037942 -31.00926589 19.13275508 -27.53515625 17.37890625 C-26.65279297 16.91806641 -25.77042969 16.45722656 -24.86132812 15.98242188 C-23.00012483 15.03818266 -21.1381483 14.09546596 -19.27539062 13.15429688 C-14.43222866 10.62143974 -11.50944428 9.02757175 -9 4 C-6.9921875 2.890625 -6.9921875 2.890625 -4.875 2.25 C-2.19290209 1.53397641 -2.19290209 1.53397641 0 0 Z " fill="#E3E3E3" transform="translate(261,191)"/>
<path d="M0 0 C0.99 0 1.98 0 3 0 C4.585869 3.171738 4.37866445 6.63513822 4.5625 10.125 C4.60568359 10.87910156 4.64886719 11.63320313 4.69335938 12.41015625 C4.7994832 14.27321888 4.90025001 16.13658524 5 18 C0.92212105 18.89445704 -2.81998005 19.08196118 -7 19 C-7.70758939 14.40066894 -6.61738021 12.06402751 -4.0625 8.375 C-3.51722656 7.64023437 -2.97195312 6.90546875 -2.41015625 6.1484375 C-1.02936746 4.04474267 -0.43901165 2.45624242 0 0 Z " fill="#DFDFDF" transform="translate(128,355)"/>
<path d="M0 0 C1.32 0.33 2.64 0.66 4 1 C4.33 6.61 4.66 12.22 5 18 C1.04 18 -2.92 18 -7 18 C-6.67367095 12.66995879 -5.54580032 9.80433236 -2.15625 5.67578125 C-0.86472669 3.8039451 -0.42536052 2.21864182 0 0 Z " fill="#E2E2E2" transform="translate(99,165)"/>
<path d="M0 0 C2.69886201 1.39032285 3.40780334 3.16795331 4.46875 5.94140625 C5.49086698 9.59278469 5.81435953 13.28905357 6.0625 17.0625 C3.875 17.875 3.875 17.875 1.0625 18.0625 C-1.75 16.3125 -1.75 16.3125 -3.9375 13.0625 C-4.46166385 9.34521552 -4.50563157 5.77628638 -3.9375 2.0625 C-1.9375 0.0625 -1.9375 0.0625 0 0 Z " fill="#131313" transform="translate(203.9375,296.9375)"/>
<path d="M0 0 C1.67542976 0.28604898 3.34385343 0.61781233 5 1 C5.50806447 2.72681437 6.00610467 4.45657979 6.5 6.1875 C6.7784375 7.15042969 7.056875 8.11335938 7.34375 9.10546875 C7.96677608 11.85345876 8.12302812 14.19598416 8 17 C4.81999975 17.35333336 3.44289811 17.33518787 0.84765625 15.37109375 C-1.52351363 12.32817596 -1.44713597 10.62409086 -1.3125 6.8125 C-1.28800781 5.74644531 -1.26351563 4.68039063 -1.23828125 3.58203125 C-1 1 -1 1 0 0 Z " fill="#060606" transform="translate(319,99)"/>
<path d="M0 0 C2.47553488 0.34145309 3.88060646 0.90846495 5.875 2.4375 C8.4422739 4.3252014 10.96132179 5.10220871 14 6 C13.67 6.99 13.34 7.98 13 9 C7.06042573 10.54428931 7.06042573 10.54428931 4.234375 9.09375 C1.89636734 7.23242351 0.21784234 5.52282162 -0.9375 2.75 C-0.958125 2.1725 -0.97875 1.595 -1 1 C-0.67 0.67 -0.34 0.34 0 0 Z " fill="#DCDCDC" transform="translate(281,400)"/>
<path d="M0 0 C1.8125 0.0625 1.8125 0.0625 4 1 C6.96464909 6.18813591 7.31111883 10.08874214 7 16 C3.24095239 14.74698413 2.98919413 13.70792716 1.25 10.25 C0.80140625 9.38890625 0.3528125 8.5278125 -0.109375 7.640625 C-1.12574014 4.6271915 -0.88832755 3.01164706 0 0 Z " fill="#D0D0D0" transform="translate(138,356)"/>
<path d="M0 0 C2.16873412 1.00691227 4.00180164 2.00144131 5.875 3.5 C8.44868736 5.31672049 10.99384452 6.1118177 14 7 C13.67 7.66 13.34 8.32 13 9 C6.26042885 10.71345029 6.26042885 10.71345029 3.13671875 8.9453125 C1.5 7.5625 1.5 7.5625 -1 5 C-0.67 3.35 -0.34 1.7 0 0 Z " fill="#E2E2E2" transform="translate(399,201)"/>
<path d="M0 0 C1.9375 0.25 1.9375 0.25 4 1 C6.18994248 4.28491373 6.35277339 5.83095639 6.625 9.6875 C6.69976562 10.68136719 6.77453125 11.67523438 6.8515625 12.69921875 C6.90054688 13.45847656 6.94953125 14.21773437 7 15 C4 14 4 14 2.8671875 12.328125 C-0.63748895 4.98762157 -0.63748895 4.98762157 -1 1 C-0.67 0.67 -0.34 0.34 0 0 Z " fill="#DBDBDB" transform="translate(109,166)"/>
<path d="M0 0 C1.98 0.495 1.98 0.495 4 1 C4.33 4.3 4.66 7.6 5 11 C1 10 1 10 -1 8 C-1.1875 4.4375 -1.1875 4.4375 -1 1 C-0.67 0.67 -0.34 0.34 0 0 Z " fill="#DADADA" transform="translate(109,149)"/>
<path d="M0 0 C0.99 0.33 1.98 0.66 3 1 C3.33 4.3 3.66 7.6 4 11 C-0.875 10.125 -0.875 10.125 -2 9 C-2.1875 5.5625 -2.1875 5.5625 -2 2 C-1.34 1.34 -0.68 0.68 0 0 Z " fill="#DDDDDD" transform="translate(139,339)"/>
<path d="M0 0 C2.48660455 0.3878678 3.72345219 0.70962479 5.484375 2.55859375 C5.90203125 3.17863281 6.3196875 3.79867187 6.75 4.4375 C7.17796875 5.05496094 7.6059375 5.67242187 8.046875 6.30859375 C9 8 9 8 9 10 C5.89903219 9.65544802 4.20062862 9.15182706 1.6875 7.25 C-0.30929204 4.58761061 -0.36116409 3.25047681 0 0 Z " fill="#D0D0D0" transform="translate(403,185)"/>
<path d="M0 0 C4.21073233 1.50383297 5.83237117 4.20664956 8 8 C8 8.99 8 9.98 8 11 C4.20167325 10.45738189 2.30727513 9.04889927 0 6 C-0.25 2.75 -0.25 2.75 0 0 Z " fill="#D8D8D8" transform="translate(286,383)"/>
<path d="M0 0 C2.97 0 5.94 0 9 0 C9.33 1.32 9.66 2.64 10 4 C7.23749964 5.38125018 5.05268901 5.19079306 2 5 C1.34 4.34 0.68 3.68 0 3 C0 2.01 0 1.02 0 0 Z " fill="#D8D8D8" transform="translate(127,383)"/>
<path d="M0 0 C2.97 0 5.94 0 9 0 C9 1.32 9 2.64 9 4 C8.67 4.33 8.34 4.66 8 5 C5.66055264 4.71269945 3.3260857 4.38063221 1 4 C0.67 2.68 0.34 1.36 0 0 Z " fill="#DADADA" transform="translate(98,193)"/>
<path d="M0 0 C2.8992226 0.46761655 3.86675182 0.86675182 6 3 C5.625 5.125 5.625 5.125 5 7 C3.35 6.67 1.7 6.34 0 6 C-0.38218767 4.34385343 -0.71395102 2.67542976 -1 1 C-0.67 0.67 -0.34 0.34 0 0 Z " fill="#C9C9C9" transform="translate(122,206)"/>
<path d="M0 0 C2.475 0.495 2.475 0.495 5 1 C4.5206753 5.31392226 3.2542015 7.16569547 0 10 C0 6.7 0 3.4 0 0 Z " fill="#DEDEDE" transform="translate(184,185)"/>
<path d="M0 0 C-0.40683495 2.35964273 -0.89814339 3.85934088 -2.3125 5.8125 C-4 7 -4 7 -6.1875 6.6875 C-6.785625 6.460625 -7.38375 6.23375 -8 6 C-6.24081631 1.94034532 -4.71412298 0 0 0 Z " fill="#D0D0D0" transform="translate(220,347)"/>
<path d="M0 0 C1.65 0.33 3.3 0.66 5 1 C5 2.65 5 4.3 5 6 C3.68 6 2.36 6 1 6 C0.34 5.34 -0.32 4.68 -1 4 C-0.625 1.875 -0.625 1.875 0 0 Z " fill="#D7D7D7" transform="translate(151,397)"/>
<path d="M0 0 C2.475 0.495 2.475 0.495 5 1 C5.33 2.98 5.66 4.96 6 7 C4.125 6.6875 4.125 6.6875 2 6 C0 3 0 3 0 0 Z " fill="#D9D9D9" transform="translate(270,389)"/>
<path d="M0 0 C-0.75 4.75 -0.75 4.75 -3 7 C-4.32 7 -5.64 7 -7 7 C-6.61402985 4.20171644 -6.19863427 3.1794116 -4.0625 1.25 C-2 0 -2 0 0 0 Z " fill="#DFDFDF" transform="translate(337,148)"/>
<path d="M0 0 C1.98 0 3.96 0 6 0 C5.67 1.65 5.34 3.3 5 5 C3.35 4.67 1.7 4.34 0 4 C0 2.68 0 1.36 0 0 Z " fill="#CACACA" transform="translate(366,404)"/>
<path d="M0 0 C4.75 0.75 4.75 0.75 7 3 C7 3.99 7 4.98 7 6 C2.25 5.25 2.25 5.25 0 3 C0 2.01 0 1.02 0 0 Z " fill="#D7D7D7" transform="translate(267,369)"/>
<path d="M0 0 C0.99 0 1.98 0 3 0 C2.25 4.75 2.25 4.75 0 7 C-0.99 7 -1.98 7 -3 7 C-2.25 2.25 -2.25 2.25 0 0 Z " fill="#DDDDDD" transform="translate(403,325)"/>
<path d="M0 0 C4.875 0.875 4.875 0.875 6 2 C6.04063832 3.66617115 6.042721 5.33388095 6 7 C4.125 6.6875 4.125 6.6875 2 6 C0 3 0 3 0 0 Z " fill="#DBDBDB" transform="translate(387,190)"/>
<path d="M0 0 C1.32 0 2.64 0 4 0 C3.42655063 2.86724686 3.1385485 3.8614515 1 6 C-1.125 5.625 -1.125 5.625 -3 5 C-1.125 1.125 -1.125 1.125 0 0 Z " fill="#D7D7D7" transform="translate(260,201)"/>
<path d="M0 0 C2.375 -0.125 2.375 -0.125 5 0 C7 2 7 2 7 6 C3.75728494 5.4409112 2.06942576 4.5867822 0 2 C0 1.34 0 0.68 0 0 Z " fill="#DDDDDD" transform="translate(384,171)"/>
<path d="M0 0 C0.53625 0.226875 1.0725 0.45375 1.625 0.6875 C-0.44256277 3.4847908 -1.51940371 3.71442273 -5.0625 4.375 C-6.155625 4.478125 -7.24875 4.58125 -8.375 4.6875 C-8.375 4.0275 -8.375 3.3675 -8.375 2.6875 C-2.95961538 -0.38942308 -2.95961538 -0.38942308 0 0 Z " fill="#DEDEDE" transform="translate(221.375,216.3125)"/>
<path d="M0 0 C2.0625 0.4375 2.0625 0.4375 4 1 C3.67 2.65 3.34 4.3 3 6 C1.68 5.67 0.36 5.34 -1 5 C-1 1 -1 1 0 0 Z " fill="#C8C8C8" transform="translate(114,186)"/>
<path d="M0 0 C0.66 0.33 1.32 0.66 2 1 C1.67 1.33 1.34 1.66 1 2 C1.66 2.66 2.32 3.32 3 4 C-3.625 7.125 -3.625 7.125 -7 6 C-4.69 4.02 -2.38 2.04 0 0 Z " fill="#D9D9D9" transform="translate(407,142)"/>
<path d="M0 0 C2.86724686 0.57344937 3.8614515 0.8614515 6 3 C6 4.32 6 5.64 6 7 C5.01 7 4.02 7 3 7 C0 2.77777778 0 2.77777778 0 0 Z " fill="#D0D0D0" transform="translate(233,336)"/>
<path d="M0 0 C0.66 0.33 1.32 0.66 2 1 C2 2.65 2 4.3 2 6 C1.01 6.33 0.02 6.66 -1 7 C-1.66 6.67 -2.32 6.34 -3 6 C-2.42655063 3.13275314 -2.1385485 2.1385485 0 0 Z " fill="#C0C0C0" transform="translate(201,119)"/>
<path d="M0 0 C0.66 0.33 1.32 0.66 2 1 C1.21718695 2.33855056 0.42348123 3.67073644 -0.375 5 C-0.81585938 5.7425 -1.25671875 6.485 -1.7109375 7.25 C-2.34902344 8.11625 -2.34902344 8.11625 -3 9 C-3.66 9 -4.32 9 -5 9 C-4.50769231 3.46153846 -4.50769231 3.46153846 -1.9375 1.125 C-1.298125 0.75375 -0.65875 0.3825 0 0 Z " fill="#E2E2E2" transform="translate(430,244)"/>
<path d="M0 0 C1.65 0 3.3 0 5 0 C4.67 1.65 4.34 3.3 4 5 C2.68 4.67 1.36 4.34 0 4 C0 2.68 0 1.36 0 0 Z " fill="#DFDFDF" transform="translate(142,377)"/>
<path d="M0 0 C2.4375 0.8125 2.4375 0.8125 5 2 C5.33 2.99 5.66 3.98 6 5 C3.03 4.505 3.03 4.505 0 4 C0 2.68 0 1.36 0 0 Z " fill="#D6D6D6" transform="translate(368,138)"/>
<path d="M0 0 C4.75 0.875 4.75 0.875 7 2 C7 2.66 7 3.32 7 4 C5.02 4 3.04 4 1 4 C0.67 2.68 0.34 1.36 0 0 Z " fill="#D9D9D9" transform="translate(250,337)"/>
<path d="M0 0 C2.86724686 0.57344937 3.8614515 0.8614515 6 3 C6 3.99 6 4.98 6 6 C4.125 5.8125 4.125 5.8125 2 5 C0.75 2.4375 0.75 2.4375 0 0 Z " fill="#D8D8D8" transform="translate(351,138)"/>
<path d="M0 0 C1.65 0 3.3 0 5 0 C5 1.32 5 2.64 5 4 C3.35 3.67 1.7 3.34 0 3 C0 2.01 0 1.02 0 0 Z " fill="#D5D5D5" transform="translate(83,196)"/>
<path d="M0 0 C2.97 0.495 2.97 0.495 6 1 C5.67 1.99 5.34 2.98 5 4 C3.35 3.67 1.7 3.34 0 3 C0 2.01 0 1.02 0 0 Z " fill="#DDDDDD" transform="translate(112,386)"/>
<path d="M0 0 C1.32 0 2.64 0 4 0 C3.34 1.32 2.68 2.64 2 4 C0.68 4 -0.64 4 -2 4 C-1.34 2.68 -0.68 1.36 0 0 Z " fill="#DCDCDC" transform="translate(270,192)"/>
<path d="M0 0 C-1.32 1.32 -2.64 2.64 -4 4 C-4.99 3.67 -5.98 3.34 -7 3 C-7 2.34 -7 1.68 -7 1 C-4.53721199 -0.231394 -2.7204945 -0.07159196 0 0 Z " fill="#CDCDCD" transform="translate(432,146)"/>
<path d="M0 0 C1.32 0 2.64 0 4 0 C3.67 0.99 3.34 1.98 3 3 C1.35 3.33 -0.3 3.66 -2 4 C-1.34 2.68 -0.68 1.36 0 0 Z " fill="#DCDCDC" transform="translate(310,344)"/>
<path d="M0 0 C1.98 0.495 1.98 0.495 4 1 C4 1.99 4 2.98 4 4 C2.35 3.67 0.7 3.34 -1 3 C-0.67 2.01 -0.34 1.02 0 0 Z " fill="#C3C3C3" transform="translate(424,201)"/>
</svg>
